# xmcd
#
# Track frame offsets: 
#        150
#        16747
#        32734
#        50871
#        63964
#        79083
#        97412
#        110614
#        134066
#        151181
#        171717
#        186045
#        205488
#        221628
#        236633
#        250896
#        268630
#
# Disc length: 3755 seconds
#
# Revision: 0
# Processed by: cddbd v1.5.1PL0 Copyright (c) Steve Scherf et al.
# Submitted via: ExactAudioCopy v0.95a5
#
DISCID=030ea911
DTITLE=Charlie Landsborough - Movin' On
DYEAR=1900
DGENRE=Country
TTITLE0=Not The Only Thing Blue
TTITLE1=I Wish It Was Me
TTITLE2=Leave Me
TTITLE3=Special
TTITLE4=Who Can Blame Him
TTITLE5=If Only I Had Wings
TTITLE6=Passing Through
TTITLE7=Centuries
TTITLE8=Like Rain
TTITLE9=Your Eyes
TTITLE10=Sunshine
TTITLE11=Long And Heavy Chain
TTITLE12=My Father Used To Sing
TTITLE13=It's So Good To See You
TTITLE14=Love Has Come Home To My Heart
TTITLE15=Too Good To Last
TTITLE16=Special (Featuring St. Ambrose RC School)
EXTD=
EXTT0=
EXTT1=
EXTT2=
EXTT3=
EXTT4=
EXTT5=
EXTT6=
EXTT7=
EXTT8=
EXTT9=
EXTT10=
EXTT11=
EXTT12=
EXTT13=
EXTT14=
EXTT15=
EXTT16=
PLAYORDER=
